<svg width="18" height="18" viewBox="0 0 18 18" fill="none" xmlns="http://www.w3.org/2000/svg">
<path fill-rule="evenodd" clip-rule="evenodd" d="M9.18182 11.3636C10.3868 11.3636 11.3636 10.3868 11.3636 9.18182C11.3636 7.97683 10.3868 7 9.18182 7C7.97683 7 7 7.97683 7 9.18182C7 10.3868 7.97683 11.3636 9.18182 11.3636Z" stroke="#2D3A45" stroke-width="1.4" stroke-linecap="round" stroke-linejoin="round"/>
<path fill-rule="evenodd" clip-rule="evenodd" d="M14.3818 11.1818C14.1837 11.6306 14.2788 12.1548 14.6218 12.5055L14.6655 12.5491C14.9386 12.8219 15.0921 13.1921 15.0921 13.5782C15.0921 13.9642 14.9386 14.3344 14.6655 14.6073C14.3926 14.8804 14.0224 15.0339 13.6364 15.0339C13.2503 15.0339 12.8801 14.8804 12.6073 14.6073L12.5636 14.5636C12.213 14.2206 11.6888 14.1256 11.24 14.3236C10.8004 14.512 10.5146 14.9435 10.5127 15.4218V15.5455C10.5127 16.3488 9.86151 17 9.05818 17C8.25486 17 7.60364 16.3488 7.60364 15.5455V15.48C7.59211 14.9874 7.28063 14.5519 6.81818 14.3818C6.36939 14.1837 5.84523 14.2788 5.49455 14.6218L5.45091 14.6655C5.17808 14.9386 4.80787 15.0921 4.42182 15.0921C4.03577 15.0921 3.66555 14.9386 3.39273 14.6655C3.1196 14.3926 2.96613 14.0224 2.96613 13.6364C2.96613 13.2503 3.1196 12.8801 3.39273 12.6073L3.43636 12.5636C3.77939 12.213 3.87443 11.6888 3.67636 11.24C3.48795 10.8004 3.05647 10.5146 2.57818 10.5127H2.45455C1.65122 10.5127 1 9.86151 1 9.05818C1 8.25486 1.65122 7.60364 2.45455 7.60364H2.52C3.0126 7.59211 3.4481 7.28063 3.61818 6.81818C3.81625 6.36939 3.72121 5.84523 3.37818 5.49455L3.33455 5.45091C3.06142 5.17808 2.90795 4.80787 2.90795 4.42182C2.90795 4.03577 3.06142 3.66555 3.33455 3.39273C3.60737 3.1196 3.97759 2.96613 4.36364 2.96613C4.74969 2.96613 5.1199 3.1196 5.39273 3.39273L5.43636 3.43636C5.78704 3.77939 6.31121 3.87443 6.76 3.67636H6.81818C7.2578 3.48795 7.54355 3.05647 7.54545 2.57818V2.45455C7.54545 1.65122 8.19668 1 9 1C9.80332 1 10.4545 1.65122 10.4545 2.45455V2.52C10.4565 2.99829 10.7422 3.42977 11.1818 3.61818C11.6306 3.81625 12.1548 3.72121 12.5055 3.37818L12.5491 3.33455C12.8219 3.06142 13.1921 2.90795 13.5782 2.90795C13.9642 2.90795 14.3344 3.06142 14.6073 3.33455C14.8804 3.60737 15.0339 3.97759 15.0339 4.36364C15.0339 4.74969 14.8804 5.1199 14.6073 5.39273L14.5636 5.43636C14.2206 5.78704 14.1256 6.31121 14.3236 6.76V6.81818C14.512 7.2578 14.9435 7.54355 15.4218 7.54545H15.5455C16.3488 7.54545 17 8.19668 17 9C17 9.80332 16.3488 10.4545 15.5455 10.4545H15.48C15.0017 10.4565 14.5702 10.7422 14.3818 11.1818Z" stroke="#2D3A45" stroke-width="1.4" stroke-linecap="round" stroke-linejoin="round"/>
</svg>
